<svg viewBox="0 0 48 48" xmlns="http://www.w3.org/2000/svg" role="img" aria-label="Salesforce">
  <path fill="#039be5" d="M36.5,12c-1.326,0-2.59,0.256-3.758,0.705C31.321,10.48,28.836,9,26,9c-2.107,0-4.018,0.821-5.447,2.152C18.815,9.221,16.303,8,13.5,8C8.253,8,4,12.253,4,17.5c0,0.792,0.108,1.558,0.29,2.293C2.291,21.349,1,23.771,1,26.5C1,31.194,4.806,35,9.5,35c0.413,0,0.816-0.039,1.214-0.096C12.027,37.903,15.017,40,18.5,40c3.162,0,5.916-1.731,7.38-4.293C26.556,35.893,27.265,36,28,36c2.62,0,4.938-1.265,6.398-3.211C35.077,32.927,35.78,33,36.5,33C42.299,33,47,28.299,47,22.5C47,16.701,42.299,12,36.5,12z"/>
</svg>
