<svg viewBox="0 0 111 54" xmlns="http://www.w3.org/2000/svg" role="img" aria-label="Thoughtworks" shape-rendering="geometricPrecision">
  <polygon fill="#F2617A" points="27.21,0 0,53.41 12.64,53.41 39.86,0 27.21,0"/>
  <path fill="#003D4F" d="M61.93,46.84a4.35,4.35,0,0,1-3-.74,4.35,4.35,0,0,1-.74-3V27.27h4.91l3-5.89h-7.9v-9.6h-8.8v9.6H45l-3,5.88h7.39V46.16a8.13,8.13,0,0,0,.81,3.9,5.74,5.74,0,0,0,2.2,2.3,9.27,9.27,0,0,0,3.22,1.08,25.16,25.16,0,0,0,3.87.28c.87,0,1.75,0,2.66-.06a21.4,21.4,0,0,0,2.48-.25V46.59a10.42,10.42,0,0,1-1.3.19C62.9,46.82,62.43,46.84,61.93,46.84Z"/>
  <polygon fill="#003D4F" points="101.9,21.39 96.01,43.06 95.89,43.06 90.44,21.39 81.89,21.39 76.56,43.13 76.44,43.13 70.56,21.39 64.83,32.62 71.43,53.41 80.53,53.41 85.98,31.91 86.1,31.91 91.8,53.41 100.85,53.41 110.94,21.39 101.9,21.39"/>
</svg>
